<svg width="124" height="26" fill="none" xmlns="http://www.w3.org/2000/svg"><mask id="a" style="mask-type:alpha" maskUnits="userSpaceOnUse" x="46" y="0" width="23" height="25"><path d="M59.89.264c4.633 0 8.397 4.163 8.471 9.332l.001.157v5.637c0 5.188-3.717 9.404-8.331 9.487l-.14.002H46.386V10.954c0-1.09.789-1.973 1.762-1.973.957 0 1.735.854 1.76 1.92l.001.053v9.979h9.982c2.706 0 4.904-2.433 4.948-5.452V9.753c0-3.031-2.171-5.494-4.866-5.543h-4.918c-.973 0-1.761-.884-1.761-1.973 0-1.072.763-1.944 1.714-1.973h4.883Z" fill="#fff"/></mask><g mask="url(#a)"><path d="M59.89.264c4.633 0 8.397 4.163 8.471 9.332l.001.157v5.637c0 4.525-2.828 8.311-6.613 9.26.168-.043.334-.09.498-.144 1.615-2.142 2.588-4.91 2.588-7.934 0-.173-.003-.346-.01-.518l-.006-.154c.011-.138.018-.278.02-.419V9.753c0-.166-.006-.33-.019-.49.01-.18.015-.361.015-.543 0-3.889-2.22-7.196-5.317-8.42l-.094-.036H55.005l-.06.004.063-.004h4.883Z" fill="url(#b)"/></g><path d="M47.82 9.015c-.801.169-1.411.945-1.433 1.886v7.52c.842 1.234 2.048 2.137 3.437 2.49l.083.021.03.001h9.952c2.584 0 4.708-2.202 4.93-5.033.012.228.016.44.016.672 0 3.023-.973 5.792-2.588 7.934a7.63 7.63 0 0 1-2.218.372l-.14.001H46.383V10.954c0-.951.601-1.745 1.401-1.932l.035-.007ZM59.424.264c3.146 1.193 5.41 4.528 5.41 8.455 0 .188-.003.358-.014.543-.212-2.81-2.296-5.005-4.85-5.051l-.082-.001h-4.835c-.973 0-1.762-.883-1.762-1.973 0-1.072.763-1.944 1.714-1.972l.048-.001h4.37Z" fill="#82B0FF"/><path d="M48.148 8.98c.957 0 1.735.855 1.76 1.92l.001.053v9.98c-1.424-.338-2.663-1.253-3.523-2.512v-7.468c0-1.09.79-1.973 1.762-1.973Z" fill="url(#c)"/><path fill-rule="evenodd" clip-rule="evenodd" d="M51.112 1.595c0-.372-.271-.674-.606-.674h-3.934c-.334 0-.605.302-.605.674v4.382c0 .372.271.674.605.674l2.35.002a4.31 4.31 0 0 1 4.259 3.66v5.723c0 .54.437.977.977.977h6.433c.54 0 .977-.437.977-.977V9.132c0-.27-.109-.514-.286-.69a.587.587 0 0 0-.487-.274h-.046a.985.985 0 0 0-.158-.013h-5.486a4.323 4.323 0 0 1-3.993-4.31v-2.25Z" fill="url(#d)"/><path d="M78.184 11.558H80.4V20.4h-2.216v-1.154c-.675.951-1.534 1.427-2.576 1.427-1.105 0-2.027-.446-2.765-1.339-.739-.898-1.108-2.023-1.108-3.373 0-1.315.367-2.428 1.1-3.338.738-.898 1.65-1.347 2.734-1.347 1.02 0 1.893.473 2.615 1.418v-1.136Zm.236 4.447c0-.698-.215-1.288-.644-1.77-.424-.487-.943-.73-1.555-.73-.613 0-1.134.24-1.564.721-.429.482-.644 1.066-.644 1.753 0 .687.215 1.27.644 1.752.43.482.95.722 1.564.722.602 0 1.118-.24 1.547-.722a2.508 2.508 0 0 0 .652-1.726ZM84.557 13.698V20.4H82.35v-6.702h-.872v-2.14h.872V8.555h2.207v3.003h1.555v2.14h-1.555ZM93.098 11.558h2.215V20.4h-2.215v-1.154c-.676.951-1.535 1.427-2.577 1.427-1.105 0-2.026-.446-2.765-1.339-.738-.898-1.108-2.023-1.108-3.373 0-1.315.367-2.428 1.1-3.338.739-.898 1.65-1.347 2.734-1.347 1.021 0 1.893.473 2.616 1.418v-1.136Zm.235 4.447c0-.698-.214-1.288-.644-1.77-.424-.487-.942-.73-1.555-.73s-1.134.24-1.563.721c-.43.482-.644 1.066-.644 1.753 0 .687.214 1.27.644 1.752.43.482.95.722 1.563.722.602 0 1.118-.24 1.547-.722a2.508 2.508 0 0 0 .652-1.726ZM99.957 6.802v11.3h3.74V20.4h-6.104V6.802h2.364ZM110.839 11.558h2.215V20.4h-2.215v-1.154c-.676.951-1.534 1.427-2.577 1.427-1.105 0-2.026-.446-2.765-1.339-.738-.898-1.107-2.023-1.107-3.373 0-1.315.366-2.428 1.1-3.338.738-.898 1.649-1.347 2.733-1.347 1.021 0 1.893.473 2.616 1.418v-1.136Zm.236 4.447c0-.698-.215-1.288-.644-1.77-.425-.487-.943-.73-1.556-.73-.613 0-1.134.24-1.563.721-.429.482-.644 1.066-.644 1.753 0 .687.215 1.27.644 1.752.429.482.95.722 1.563.722.602 0 1.118-.24 1.548-.722a2.511 2.511 0 0 0 .652-1.726ZM117.196 5.111v7.583c.738-.945 1.616-1.418 2.631-1.418 1.085 0 1.993.45 2.726 1.347.739.899 1.108 2.011 1.108 3.338 0 1.35-.369 2.475-1.108 3.373-.738.893-1.662 1.339-2.773 1.339-1.042 0-1.903-.476-2.584-1.427V20.4h-2.207V5.11h2.207Zm4.187 10.894c0-.698-.215-1.288-.644-1.77-.425-.487-.946-.73-1.564-.73-.607 0-1.128.243-1.563.73-.429.482-.644 1.063-.644 1.744 0 .687.215 1.27.644 1.752.43.482.953.722 1.571.722.603 0 1.118-.24 1.548-.722a2.511 2.511 0 0 0 .652-1.726ZM.774 13.504c0-1.943.633-3.599 1.9-4.967C3.943 7.17 5.477 6.485 7.279 6.485c1.812 0 3.341.69 4.587 2.07 1.252 1.374 1.878 3.056 1.878 5.046 0 2.014-.631 3.702-1.893 5.064-1.247 1.362-2.8 2.043-4.659 2.043-1.628 0-3.05-.584-4.265-1.752-1.435-1.38-2.152-3.197-2.152-5.452Zm2.435.036c0 1.326.393 2.45 1.178 3.373.79.921 1.75 1.382 2.875 1.382 1.116 0 2.066-.458 2.852-1.374.79-.921 1.186-2.031 1.186-3.329 0-1.303-.396-2.407-1.186-3.311-.786-.916-1.739-1.374-2.86-1.374-1.11 0-2.06.458-2.851 1.374-.796.91-1.194 1.996-1.194 3.258ZM17.602 25.111h-2.208V11.558h2.208v1.145c.68-.951 1.542-1.427 2.584-1.427 1.11 0 2.035.45 2.773 1.348.739.898 1.108 2.02 1.108 3.364 0 1.327-.37 2.44-1.108 3.338-.733.898-1.642 1.347-2.726 1.347-1.026 0-1.903-.476-2.631-1.427v5.866Zm4.187-9.106c0-.698-.215-1.288-.645-1.77-.424-.487-.945-.73-1.563-.73-.607 0-1.128.243-1.563.73-.43.482-.644 1.063-.644 1.744 0 .687.215 1.271.644 1.753.43.48.95.722 1.563.722.608 0 1.126-.241 1.556-.723a2.508 2.508 0 0 0 .652-1.726ZM33.322 16.384h-5.907c0 .728.173 1.306.518 1.735.351.423.825.634 1.422.634.775 0 1.396-.393 1.862-1.18l2.042.37c-.675 1.82-1.963 2.73-3.864 2.73-1.284 0-2.31-.423-3.08-1.268-.77-.852-1.155-1.988-1.155-3.408 0-1.439.372-2.584 1.116-3.435.749-.857 1.752-1.286 3.009-1.286 1.256 0 2.241.426 2.953 1.277.723.857 1.084 2.026 1.084 3.505v.326Zm-2.105-1.576c-.246-1.175-.872-1.762-1.877-1.762-.493 0-.899.153-1.218.458-.32.3-.526.734-.62 1.304h3.715ZM34.832 11.558h2.208v1.1c.644-.92 1.469-1.382 2.474-1.382.859 0 1.56.288 2.105.863.299.3.508.652.629 1.057.12.452.18.984.18 1.594v5.61h-2.207v-4.897c0-.375-.029-.698-.086-.968a1.69 1.69 0 0 0-.26-.66 1.026 1.026 0 0 0-.47-.37 1.728 1.728 0 0 0-.692-.124c-1.116 0-1.673.813-1.673 2.44V20.4h-2.208v-8.842Z" fill="#fff"/><defs><linearGradient id="b" x1="53.632" y1="6.578" x2="70.209" y2="22.758" gradientUnits="userSpaceOnUse"><stop stop-color="#4187FF"/><stop offset=".34" stop-color="#1A67FF"/><stop offset="1" stop-color="#4D49D1"/></linearGradient><linearGradient id="c" x1="44.055" y1="11.09" x2="52.468" y2="14.372" gradientUnits="userSpaceOnUse"><stop stop-color="#7AB4FF"/><stop offset=".543" stop-color="#1A67FF"/><stop offset="1" stop-color="#4D49D1"/></linearGradient><linearGradient id="d" x1="29.303" y1="5.958" x2="52.44" y2="30.456" gradientUnits="userSpaceOnUse"><stop stop-color="#7AB4FF"/><stop offset=".352" stop-color="#1A67FF"/><stop offset="1" stop-color="#5B41F8"/></linearGradient></defs></svg>