<svg width="360" height="72" viewBox="0 0 360 72" fill="none" xmlns="http://www.w3.org/2000/svg">
<mask id="mask0_74_7816" style="mask-type:alpha" maskUnits="userSpaceOnUse" x="132" y="4" width="53" height="56">
<path d="M164.505 4.09229C175.54 4.09229 184.506 13.4609 184.685 25.0894L184.687 25.4425V38.1258C184.687 49.7993 175.831 59.2846 164.838 59.4731L164.505 59.476H132.333V28.1446C132.333 25.6929 134.211 23.7054 136.529 23.7054C138.808 23.7054 140.664 25.6283 140.724 28.0244L140.725 28.1446V50.5977H164.505C170.951 50.5977 176.189 45.1249 176.293 38.332L176.294 38.1258V25.4425C176.294 18.6233 171.121 13.0824 164.7 12.9723L164.505 12.9706H152.985C150.667 12.9706 148.788 10.9831 148.788 8.53144C148.788 6.11995 150.606 4.15757 152.871 4.09388L152.985 4.09229H164.505Z" fill="white"/>
</mask>
<g mask="url(#mask0_74_7816)">
<path d="M164.505 4.09229C175.54 4.09229 184.506 13.4609 184.685 25.0894L184.687 25.4425V38.1258C184.687 48.3087 177.948 56.8266 168.931 58.961C169.331 58.8656 169.728 58.758 170.119 58.6383C173.965 53.8178 176.283 47.5886 176.283 40.7866C176.283 40.3959 176.276 40.0071 176.261 39.6204L176.245 39.2741C176.272 38.9632 176.288 38.6491 176.293 38.332L176.295 38.1258V25.4425C176.295 25.0707 176.279 24.7028 176.249 24.3393C176.272 23.9354 176.283 23.5282 176.283 23.1181C176.283 14.3697 170.995 6.92784 163.616 4.17455L163.392 4.09256L152.979 4.09321L152.865 4.0948L152.72 4.10152C152.773 4.09755 152.822 4.09527 152.871 4.09388L152.985 4.09229H164.505Z" fill="url(#paint0_linear_74_7816)"/>
</g>
<path d="M135.748 23.782C133.839 24.162 132.386 25.9098 132.334 28.0265L132.333 28.1445L132.333 44.947C134.339 47.7235 137.214 49.7552 140.522 50.5504L140.72 50.5962L140.791 50.5989L164.499 50.5985C170.658 50.5985 175.717 45.6431 176.247 39.274C176.273 39.7875 176.283 40.2655 176.283 40.7864C176.283 47.5885 173.965 53.8177 170.119 58.6382C168.437 59.153 166.664 59.4425 164.833 59.4739L164.499 59.4768H132.327V28.1454C132.327 26.005 133.759 24.2185 135.665 23.7992L135.748 23.782Z" fill="#82B0FF"/>
<path d="M163.392 4.09253C170.888 6.7776 176.283 14.2813 176.283 23.1181C176.283 23.5411 176.273 23.9228 176.249 24.3393C175.743 18.0175 170.777 13.0775 164.694 12.9732L164.499 12.9715H152.979C150.661 12.9715 148.783 10.984 148.783 8.53233C148.783 6.12084 150.6 4.15846 152.865 4.09477L152.979 4.09318L163.392 4.09253Z" fill="#82B0FF"/>
<path d="M136.529 23.7053C138.809 23.7053 140.664 25.6282 140.724 28.0243L140.725 28.1445V50.5976C137.331 49.8379 134.38 47.7802 132.333 44.947L132.333 28.1445C132.333 25.6928 134.211 23.7053 136.529 23.7053Z" fill="url(#paint1_linear_74_7816)"/>
<path fill-rule="evenodd" clip-rule="evenodd" d="M143.589 7.08879C143.589 6.2511 142.944 5.57202 142.148 5.57202H132.775C131.979 5.57202 131.333 6.2511 131.333 7.08879V16.9478C131.333 17.7854 131.979 18.4645 132.775 18.4645L138.613 18.4691C140.786 18.4709 142.899 19.1781 144.636 20.4844C146.741 22.0687 148.122 24.4035 148.519 26.9685V40.8027C148.519 41.3423 148.956 41.7798 149.496 41.7798H167.524C168.064 41.7798 168.501 41.3423 168.501 40.8027V22.826C168.501 22.2864 168.064 21.8489 167.524 21.8489H152.886C150.896 21.6991 148.988 20.9591 147.413 19.7151C144.998 17.809 143.589 14.9022 143.589 11.826V7.08879Z" fill="url(#paint2_linear_74_7816)"/>
<path d="M208.087 29.5046H213.364V49.399H208.087V46.8032C206.477 48.9432 204.431 50.0132 201.948 50.0132C199.316 50.0132 197.12 49.0093 195.361 47.0014C193.602 44.9802 192.722 42.4505 192.722 39.4122C192.722 36.4531 193.595 33.9498 195.342 31.9023C197.101 29.8811 199.272 28.8706 201.855 28.8706C204.288 28.8706 206.365 29.934 208.087 32.0608V29.5046ZM208.648 39.5112C208.648 37.9393 208.136 36.6116 207.113 35.5284C206.103 34.432 204.868 33.8838 203.408 33.8838C201.948 33.8838 200.707 34.4254 199.684 35.5086C198.661 36.5918 198.149 37.9062 198.149 39.4518C198.149 40.9974 198.661 42.3118 199.684 43.395C200.707 44.4782 201.948 45.0198 203.408 45.0198C204.843 45.0198 206.072 44.4782 207.095 43.395C208.13 42.2986 208.648 41.004 208.648 39.5112Z" fill="#070913"/>
<path d="M223.268 34.3197V49.399H218.01V34.3197H215.932V29.5046H218.01V22.7477H223.268V29.5046H226.974V34.3197H223.268Z" fill="#070913"/>
<path d="M243.615 29.5046H248.893V49.399H243.615V46.8032C242.006 48.9432 239.96 50.0132 237.477 50.0132C234.845 50.0132 232.649 49.0093 230.89 47.0014C229.13 44.9802 228.251 42.4505 228.251 39.4122C228.251 36.4531 229.124 33.9498 230.871 31.9023C232.63 29.8811 234.801 28.8706 237.383 28.8706C239.816 28.8706 241.894 29.934 243.615 32.0608V29.5046ZM244.177 39.5112C244.177 37.9393 243.665 36.6116 242.642 35.5284C241.632 34.432 240.396 33.8838 238.937 33.8838C237.477 33.8838 236.236 34.4254 235.213 35.5086C234.19 36.5918 233.678 37.9062 233.678 39.4518C233.678 40.9974 234.19 42.3118 235.213 43.395C236.236 44.4782 237.477 45.0198 238.937 45.0198C240.372 45.0198 241.6 44.4782 242.623 43.395C243.659 42.2986 244.177 41.004 244.177 39.5112Z" fill="#070913"/>
<path d="M259.957 18.8045V44.2272H268.865V49.399H254.324V18.8045H259.957Z" fill="#070913"/>
<path d="M285.881 29.5046H291.159V49.399H285.881V46.8032C284.272 48.9432 282.226 50.0132 279.743 50.0132C277.11 50.0132 274.915 49.0093 273.156 47.0014C271.396 44.9802 270.517 42.4505 270.517 39.4122C270.517 36.4531 271.39 33.9498 273.137 31.9023C274.896 29.8811 277.067 28.8706 279.649 28.8706C282.082 28.8706 284.159 29.934 285.881 32.0608V29.5046ZM286.443 39.5112C286.443 37.9393 285.931 36.6116 284.908 35.5284C283.897 34.432 282.662 33.8838 281.203 33.8838C279.743 33.8838 278.502 34.4254 277.479 35.5086C276.455 36.5918 275.944 37.9062 275.944 39.4518C275.944 40.9974 276.455 42.3118 277.479 43.395C278.502 44.4782 279.743 45.0198 281.203 45.0198C282.637 45.0198 283.866 44.4782 284.889 43.395C285.925 42.2986 286.443 41.004 286.443 39.5112Z" fill="#070913"/>
<path d="M301.026 15V32.0608C302.785 29.934 304.874 28.8706 307.295 28.8706C309.877 28.8706 312.042 29.8811 313.789 31.9023C315.548 33.9234 316.427 36.4267 316.427 39.4122C316.427 42.4505 315.548 44.9802 313.789 47.0014C312.03 49.0093 309.828 50.0132 307.183 50.0132C304.7 50.0132 302.647 48.9432 301.026 46.8032V49.399H295.767V15H301.026ZM311 39.5112C311 37.9393 310.489 36.6116 309.466 35.5284C308.455 34.432 307.214 33.8838 305.742 33.8838C304.294 33.8838 303.053 34.432 302.017 35.5284C300.994 36.6116 300.483 37.9194 300.483 39.4518C300.483 40.9974 300.994 42.3118 302.017 43.395C303.04 44.4782 304.288 45.0198 305.76 45.0198C307.195 45.0198 308.424 44.4782 309.447 43.395C310.483 42.2986 311 41.004 311 39.5112Z" fill="#070913"/>
<path d="M23.6666 33.8837C23.6666 29.5112 25.1762 25.7859 28.1955 22.708C31.2147 19.63 34.8702 18.0911 39.162 18.0911C43.4788 18.0911 47.1218 19.6432 50.0911 22.7476C53.0729 25.8388 54.5638 29.6234 54.5638 34.1016C54.5638 38.6327 53.0605 42.4306 50.0537 45.4953C47.0844 48.56 43.3852 50.0924 38.9562 50.0924C35.0761 50.0924 31.6888 48.778 28.7943 46.1492C25.3759 43.0448 23.6666 38.9563 23.6666 33.8837ZM29.468 33.9629C29.468 36.9484 30.4038 39.4781 32.2752 41.5521C34.1591 43.6261 36.4422 44.6631 39.1246 44.6631C41.782 44.6631 44.0464 43.6327 45.9179 41.5719C47.8018 39.4979 48.7437 37.0013 48.7437 34.0818C48.7437 31.1492 47.8018 28.6657 45.9179 26.6314C44.0464 24.5706 41.7758 23.5402 39.1059 23.5402C36.4609 23.5402 34.1965 24.5706 32.3126 26.6314C30.4162 28.6789 29.468 31.1228 29.468 33.9629Z" fill="#070913"/>
<path d="M63.7571 59.9999H58.4984V29.5045H63.7571V32.0805C65.379 29.9405 67.4313 28.8705 69.9141 28.8705C72.559 28.8705 74.7611 29.881 76.5202 31.9022C78.2793 33.9233 79.1589 36.4464 79.1589 39.4715C79.1589 42.457 78.2793 44.9603 76.5202 46.9814C74.7735 49.0026 72.6089 50.0131 70.0264 50.0131C67.581 50.0131 65.4913 48.9431 63.7571 46.8031V59.9999ZM73.7318 39.5112C73.7318 37.9392 73.2203 36.6116 72.1972 35.5283C71.1866 34.4319 69.9453 33.8837 68.4731 33.8837C67.0258 33.8837 65.7845 34.4319 64.7489 35.5283C63.7259 36.6116 63.2144 37.9193 63.2144 39.4517C63.2144 40.9973 63.7259 42.3117 64.7489 43.3949C65.772 44.4781 67.0134 45.0198 68.4731 45.0198C69.9203 45.0198 71.1555 44.4781 72.1785 43.3949C73.214 42.2985 73.7318 41.0039 73.7318 39.5112Z" fill="#070913"/>
<path d="M101.209 40.3632H87.1357C87.1357 42.0013 87.5475 43.3024 88.3709 44.2668C89.2068 45.2179 90.3359 45.6935 91.7582 45.6935C93.6046 45.6935 95.0831 44.8084 96.1934 43.0382L101.059 43.8705C99.4497 47.9656 96.3806 50.0131 91.8517 50.0131C88.7951 50.0131 86.3498 49.062 84.5158 47.1598C82.6818 45.2443 81.7648 42.6882 81.7648 39.4913C81.7648 36.2549 82.6506 33.6789 84.4222 31.7635C86.2063 29.8348 88.5955 28.8705 91.5897 28.8705C94.584 28.8705 96.9295 29.8282 98.6263 31.7437C100.348 33.6723 101.209 36.3011 101.209 39.6301V40.3632ZM96.1934 36.8163C95.6071 34.1743 94.1162 32.8533 91.7207 32.8533C90.548 32.8533 89.5811 33.1968 88.82 33.8837C88.059 34.5574 87.5662 35.5349 87.3416 36.8163H96.1934Z" fill="#070913"/>
<path d="M104.807 29.5045H110.065V31.9814C111.6 29.9075 113.565 28.8705 115.96 28.8705C118.006 28.8705 119.678 29.5178 120.976 30.8123C121.687 31.4861 122.186 32.2787 122.473 33.1902C122.76 34.2073 122.903 35.4028 122.903 36.7767V49.3989H117.645V38.3817C117.645 37.5363 117.576 36.8097 117.439 36.202C117.314 35.5944 117.108 35.099 116.821 34.7159C116.534 34.3328 116.16 34.0554 115.698 33.8837C115.249 33.6987 114.7 33.6063 114.051 33.6063C111.394 33.6063 110.065 35.4359 110.065 39.095V49.3989H104.807V29.5045Z" fill="#070913"/>
<defs>
<linearGradient id="paint0_linear_74_7816" x1="149.594" y1="18.2986" x2="186.884" y2="56.8353" gradientUnits="userSpaceOnUse">
<stop stop-color="#4187FF"/>
<stop offset="0.340008" stop-color="#1A67FF"/>
<stop offset="1" stop-color="#4D49D1"/>
</linearGradient>
<linearGradient id="paint1_linear_74_7816" x1="126.779" y1="28.4523" x2="146.507" y2="36.6008" gradientUnits="userSpaceOnUse">
<stop stop-color="#7AB4FF"/>
<stop offset="0.54277" stop-color="#1A67FF"/>
<stop offset="1" stop-color="#4D49D1"/>
</linearGradient>
<linearGradient id="paint2_linear_74_7816" x1="91.6329" y1="16.9064" x2="143.439" y2="74.9841" gradientUnits="userSpaceOnUse">
<stop stop-color="#7AB4FF"/>
<stop offset="0.352463" stop-color="#1A67FF"/>
<stop offset="1" stop-color="#5B41F8"/>
</linearGradient>
</defs>
</svg>
